<svg xmlns="http://www.w3.org/2000/svg" viewBox="0 0 64 64">
    <defs>
        <symbol id="icon-star" viewBox="0 0 64 64" preserveAspectRatio="xMidYMid meet">
            <path d="M0 0H64V64H0V0Z" fill="#6A6B83"/>
            <path d="M28.7711 6.41606C30.369 4.23063 33.631 4.23063 35.2289 6.41606L42.9024 16.9108C43.3961 17.586 44.0891 18.0894 44.8838 18.3503L57.2361 22.4052C59.8083 23.2496 60.8164 26.3519 59.2317 28.547L51.6219 39.088C51.1323 39.7662 50.8676 40.5808 50.8651 41.4172L50.8257 54.418C50.8175 57.1252 48.1785 59.0426 45.6012 58.2138L33.2245 54.2338C32.4283 53.9777 31.5717 53.9777 30.7755 54.2338L18.3988 58.2138C15.8215 59.0426 13.1825 57.1252 13.1743 54.418L13.1349 41.4172C13.1324 40.5808 12.8677 39.7662 12.3781 39.088L4.76832 28.547C3.18364 26.3519 4.19165 23.2496 6.76391 22.4052L19.1162 18.3503C19.9109 18.0894 20.6039 17.586 21.0976 16.9108L28.7711 6.41606Z" fill="#5F506B"/>
        </symbol>

        <symbol id="icon-heart" viewBox="0 0 64 64" preserveAspectRatio="xMidYMid meet">
            <path d="M0 0H64V64H0V0Z" fill="#6A6B83"/>
            <path d="M32 17.2579C29.4182 15.8227 30.3714 15.953 26.191 12.2346C22.9638 9.36418 15.2185 9.14801 11.9914 12.2346C8.7641 15.6066 7.59951 20.0756 8.11873 24.2696C8.63794 28.4636 11.1823 34.2664 13.9276 38.0688C16.673 41.8713 20.681 46.8563 22.3183 48.6169C23.9557 50.3775 28.8851 56 32 56L32 17.2579Z" fill="#5F506B"/>
            <path d="M32 17.2579C34.5817 15.8227 33.6286 15.953 37.809 12.2346C41.0362 9.36418 48.7815 9.14801 52.0086 12.2346C55.2359 15.6066 56.4005 20.0756 55.8813 24.2696C55.3621 28.4636 52.8177 34.2664 50.0724 38.0688C47.327 41.8713 43.319 46.8563 41.6817 48.6169C40.0443 50.3775 35.1149 56 32 56L32 17.2579Z" fill="#5F506B"/>
        </symbol>

        <symbol id="icon-triangle" viewBox="0 0 64 64" preserveAspectRatio="xMidYMid meet">
            <path d="M0 0H64V64H0V0Z" fill="#6A6B83"/>
            <path d="M26.7493 9.49577C29.0323 5.36699 34.9677 5.36698 37.2507 9.49576L56.5217 44.3466C58.7329 48.3456 55.8406 53.25 51.2709 53.25H12.7291C8.15942 53.25 5.26707 48.3456 7.47833 44.3466L26.7493 9.49577Z" fill="#5F506B"/>
        </symbol>

        <symbol id="icon-diamond" viewBox="0 0 64 64" preserveAspectRatio="xMidYMid meet">
            <path d="M0 0H64V64H0V0Z" fill="#6A6B83"/>
            <path d="M36.0109 52.1112C34.0116 54.7974 29.9884 54.7973 27.989 52.1112L8.75554 26.2702C7.33849 24.3664 7.45508 21.7287 9.03457 19.9573L14.6385 13.6724C15.5872 12.6085 16.945 12 18.3705 12L45.6295 12C47.055 12 48.4127 12.6085 49.3614 13.6724L54.9654 19.9573C56.5449 21.7287 56.6615 24.3664 55.2444 26.2702L36.0109 52.1112Z" fill="#5F506B"/>
        </symbol>

        <symbol id="icon-circle" viewBox="0 0 64 64" preserveAspectRatio="xMidYMid meet">
            <path d="M0 0H64V64H0V0Z" fill="#6A6B83"/>
            <path d="M56 32C56 45.2548 45.2548 56 32 56C18.7452 56 8 45.2548 8 32C8 18.7452 18.7452 8 32 8C45.2548 8 56 18.7452 56 32Z" fill="#5F506B"/>
            <path d="M48 32C48 40.8366 40.8366 48 32 48C23.1634 48 16 40.8366 16 32C16 23.1634 23.1634 16 32 16C40.8366 16 48 23.1634 48 32Z" fill="#6A6B83"/>
        </symbol>

        <symbol id="icon-house" viewBox="0 0 64 64" preserveAspectRatio="xMidYMid meet">
            <path d="M0 0H64V64H0V0Z" fill="#6A6B83"/>
            <path d="M51 30.25V52C51 53.6568 49.6569 55 48 55H16C14.3432 55 13 53.6568 13 52V30.25H10.5204C6.73638 30.25 5.06787 25.4825 8.02604 23.1229L29.5057 5.98959C30.9649 4.82566 33.0351 4.82565 34.4943 5.98959L55.974 23.1229C58.9321 25.4825 57.2636 30.25 53.4797 30.25H51Z" fill="#5F506B"/>
        </symbol>
    </defs>
</svg>