<svg width="64" height="64" viewBox="0 0 64 64" fill="none" xmlns="http://www.w3.org/2000/svg">
<path d="M0 10C0 4.47715 4.47715 0 10 0H54C59.5228 0 64 4.47715 64 10V54C64 59.5228 59.5228 64 54 64H10C4.47715 64 0 59.5228 0 54V10Z" fill="#6A6B83"/>
<path d="M28.7711 4.41606C30.369 2.23063 33.631 2.23063 35.2289 4.41606L42.9024 14.9108C43.3961 15.586 44.0891 16.0894 44.8838 16.3503L57.2361 20.4052C59.8083 21.2496 60.8164 24.3519 59.2317 26.547L51.6219 37.088C51.1323 37.7662 50.8676 38.5808 50.8651 39.4172L50.8257 52.418C50.8175 55.1252 48.1785 57.0426 45.6012 56.2138L33.2245 52.2338C32.4283 51.9777 31.5717 51.9777 30.7755 52.2338L18.3988 56.2138C15.8215 57.0426 13.1825 55.1252 13.1743 52.418L13.1349 39.4172C13.1324 38.5808 12.8677 37.7662 12.3781 37.088L4.76832 26.547C3.18364 24.3519 4.19165 21.2496 6.76391 20.4052L19.1162 16.3503C19.9109 16.0894 20.6039 15.586 21.0976 14.9108L28.7711 4.41606Z" fill="#5F506B"/>
</svg>
