<svg width="60" height="58" viewBox="0 0 60 58" fill="none" xmlns="http://www.w3.org/2000/svg">
<path d="M27.3098 2.45095C28.4102 0.221216 31.5898 0.221221 32.6902 2.45096L39.5882 16.4279C40.0252 17.3133 40.8699 17.927 41.847 18.069L57.2715 20.3103C59.7322 20.6679 60.7147 23.6918 58.9341 25.4274L47.7729 36.3069C47.0658 36.9961 46.7432 37.9891 46.9101 38.9623L49.5449 54.3244C49.9652 56.7751 47.3929 58.644 45.1921 57.4869L31.396 50.2339C30.5221 49.7745 29.4779 49.7745 28.604 50.2339L14.8079 57.4869C12.607 58.644 10.0348 56.7751 10.4551 54.3244L13.0899 38.9623C13.2568 37.9891 12.9342 36.9961 12.2271 36.3069L1.06587 25.4274C-0.714686 23.6918 0.267846 20.6679 2.72851 20.3103L18.153 18.069C19.1301 17.927 19.9748 17.3133 20.4118 16.4279L27.3098 2.45095Z" fill="#86BBBD"/>
</svg>
